<svg xmlns="http://www.w3.org/2000/svg" width="32" height="32">
    <path style="stroke:none;fill-rule:nonzero;fill:#000;fill-opacity:1" d="M18.645 14.77h2.824c.136 0 .246-.11.25-.247v-2.515a.248.248 0 0 0-.25-.246h-2.824a.245.245 0 0 0-.247.246v2.515c0 .137.11.247.247.247M14.707 7.53h2.824a.248.248 0 0 0 .246-.25V4.766a.248.248 0 0 0-.246-.246h-2.824c-.137 0-.25.109-.25.246V7.28c0 .137.11.25.25.25m0 3.621h2.824a.254.254 0 0 0 .246-.25V8.387a.248.248 0 0 0-.246-.246h-2.824c-.137 0-.25.109-.25.246v2.515c0 .137.11.246.25.25m-3.91 0h2.828a.251.251 0 0 0 .246-.25V8.387a.245.245 0 0 0-.246-.246h-2.824a.245.245 0 0 0-.246.246v2.515c0 .137.11.246.246.25m-3.953 0h2.824a.254.254 0 0 0 .25-.25V8.387a.248.248 0 0 0-.25-.246H6.848a.245.245 0 0 0-.246.246v2.515c0 .137.109.246.246.25m7.859 3.618h2.824c.133 0 .246-.11.246-.247v-2.515a.245.245 0 0 0-.246-.246h-2.824c-.137 0-.25.11-.25.246v2.515c0 .137.11.247.25.247m-3.91 0h2.828c.137 0 .246-.11.246-.247v-2.515a.245.245 0 0 0-.246-.246h-2.828a.244.244 0 0 0-.242.246v2.515c0 .137.11.247.246.247m-3.953 0h2.824c.137 0 .25-.11.25-.247v-2.515a.245.245 0 0 0-.246-.246H6.848a.245.245 0 0 0-.246.246v2.515c0 .137.109.247.246.247m-3.895 0h2.828c.137 0 .246-.11.246-.247v-2.515a.245.245 0 0 0-.246-.246H2.953a.244.244 0 0 0-.242.246v2.515c0 .137.11.247.246.247m28.727-1.582c-.086-.07-.895-.68-2.606-.68-.45 0-.902.039-1.348.113-.328-2.266-2.203-3.371-2.285-3.418l-.46-.265-.301.433a6.2 6.2 0 0 0-.817 1.906c-.305 1.293-.12 2.512.54 3.551-.794.442-2.067.55-2.329.559H1c-.55 0-.996.445-1 .996A15.16 15.16 0 0 0 .926 21.8c.726 1.902 1.804 3.304 3.21 4.164 1.575.965 4.134 1.515 7.036 1.515a20.821 20.821 0 0 0 3.906-.355 16.31 16.31 0 0 0 5.098-1.852 13.956 13.956 0 0 0 3.48-2.847c1.668-1.89 2.664-3.996 3.403-5.867h.293c1.832 0 2.957-.73 3.574-1.344a3.91 3.91 0 0 0 .945-1.395l.129-.383zm0 0"/>
</svg>
