<svg xmlns="http://www.w3.org/2000/svg" width="32" height="32">
    <path style="stroke:none;fill-rule:nonzero;fill:#000;fill-opacity:1" d="M31.395 14.574 17.422.602a2.065 2.065 0 0 0-2.918 0l-2.895 2.902 3.68 3.68a2.449 2.449 0 0 1 2.52.586c.687.687.878 1.68.586 2.535l3.543 3.547a2.445 2.445 0 0 1 2.53.578c.966.96.966 2.511 0 3.472-.956.961-2.507.961-3.464 0a2.461 2.461 0 0 1-.54-2.66l-3.316-3.3v8.699c.235.113.454.27.649.464.95.961.95 2.508 0 3.465-.957.961-2.52.961-3.477 0a2.443 2.443 0 0 1 0-3.465 2.49 2.49 0 0 1 .805-.539v-8.785a2.45 2.45 0 0 1-1.328-3.215L10.18 4.934.602 14.508c-.801.808-.801 2.113 0 2.918l13.972 13.969c.805.808 2.11.808 2.914 0l13.907-13.907a2.054 2.054 0 0 0 0-2.914"/>
</svg>
