<svg xmlns="http://www.w3.org/2000/svg" width="32" height="32">
    <path style="stroke:none;fill-rule:nonzero;fill:#000;fill-opacity:1" d="M0 0h32v32H0zm29.379 24.367c-.234-1.46-1.184-2.687-4.004-3.828-.98-.46-2.074-.781-2.395-1.523-.125-.438-.14-.68-.062-.938.2-.863 1.219-1.121 2.02-.879.519.156 1 .559 1.3 1.2 1.38-.903 1.38-.903 2.34-1.5-.36-.563-.539-.801-.781-1.044-.84-.937-1.957-1.418-3.777-1.375l-.942.118c-.902.218-1.758.699-2.281 1.34-1.52 1.722-1.078 4.722.762 5.96 1.82 1.36 4.48 1.66 4.82 2.942.32 1.558-1.16 2.058-2.621 1.879-1.082-.239-1.68-.782-2.34-1.782l-2.441 1.403c.28.64.601.918 1.082 1.476 2.32 2.344 8.117 2.223 9.16-1.336.039-.12.32-.94.097-2.203zm-11.977-9.66h-3c0 2.586-.011 5.152-.011 7.742 0 1.64.086 3.149-.184 3.613-.437.918-1.574.801-2.086.641-.527-.262-.797-.621-1.11-1.14-.081-.141-.144-.262-.167-.262L8.41 26.8c.406.84 1 1.562 1.766 2.023 1.14.68 2.672.899 4.277.54 1.043-.302 1.942-.923 2.414-1.88.68-1.242.535-2.761.528-4.464.015-2.739 0-5.477 0-8.239zm0 0"/>
</svg>
