<svg xmlns="http://www.w3.org/2000/svg" width="32" height="32">
    <path style="stroke:none;fill-rule:nonzero;fill:#fff;fill-opacity:1" d="M15.43 0c-.235 0-.414 0-.477.008-.07.008-.289.027-.484.043-4.547.41-8.805 2.863-11.5 6.633a15.852 15.852 0 0 0-2.824 6.988C.015 14.55 0 14.812 0 16.004c0 1.191.016 1.45.145 2.328.867 6.008 5.144 11.059 10.945 12.926 1.039.336 2.133.566 3.379.703.484.05 2.578.05 3.062 0 2.153-.238 3.973-.77 5.766-1.688.277-.14.328-.175.293-.207-.027-.02-1.2-1.593-2.606-3.496l-2.558-3.457-3.207-4.742c-1.766-2.61-3.215-4.742-3.23-4.742-.012-.004-.024 2.105-.032 4.68-.008 4.507-.012 4.687-.066 4.793-.082.156-.145.218-.278.285-.097.05-.187.058-.66.058h-.539l-.144-.09a.589.589 0 0 1-.211-.226l-.063-.14.004-6.274.012-6.274.093-.12a.867.867 0 0 1 .235-.192c.129-.063.176-.066.719-.066.636 0 .742.023.91.203.047.05 1.781 2.668 3.86 5.816a8081.87 8081.87 0 0 0 6.312 9.559l2.535 3.84.125-.086c1.137-.739 2.34-1.79 3.289-2.883a15.921 15.921 0 0 0 3.765-8.18c.13-.879.145-1.137.145-2.328 0-1.192-.016-1.453-.145-2.332C30.988 7.664 26.711 2.617 20.91.746a16.678 16.678 0 0 0-3.332-.695C17.355.027 16.137 0 15.43 0zm5.425 9.621c.461 0 .543.008.649.063.148.078.27.218.312.37.028.083.032 1.821.028 5.739l-.008 5.625-.992-1.52-.996-1.523v-4.086c0-2.644.011-4.129.03-4.2a.646.646 0 0 1 .31-.394c.128-.066.175-.074.667-.074zm0 0"/>
</svg>
