<svg xmlns="http://www.w3.org/2000/svg" width="32" height="32">
    <path style="stroke:none;fill-rule:nonzero;fill:#000;fill-opacity:1" d="m26.297 27.031.031-.062c.027-.047.05-.102.07-.153l.004-.007c.094-.258.121-.54.07-.809l.005.008a2.47 2.47 0 0 0-.313-.832l.004.012-7.09-12.473-1.082-1.895-1.078 1.895-7.086 12.473c-.137.25-.227.523-.27.804l-.003.016c-.055.32-.02.652.109.949l-.004-.008c.02.047.04.09.066.137l-.003-.008c.214.367.668.805 1.668.805h13.199c.207 0 1.23-.043 1.707-.852zm-8.3-12.422 6.476 11.399H11.52zM31.66 25.188 22.305 8.706c-.094-.176-.637-1.05-1.575-1.05-.421 0-1.03.179-1.523 1.046l-1.21 2.121 1.077 1.895 1.668-2.953 9.254 16.242h-3.52c.044.273.02.555-.078.812l.004-.011a1.29 1.29 0 0 1-.074.168v-.004l-.031.058c-.473.809-1.496.852-1.695.852h5.507c.203 0 1.223-.043 1.696-.852.207-.367.36-.98-.145-1.843zm-21.926 1.89a3.83 3.83 0 0 1-.058-.125l-.004-.008a1.646 1.646 0 0 1-.11-.949l-.003.012H1.996L13.238 6.227l3.692 6.488 1.066-1.895-3.215-5.664c-.09-.164-.633-1.039-1.57-1.039-.422 0-1.027.184-1.524 1.051L.306 25.188c-.098.171-.567 1.082-.102 1.886.215.367.668.805 1.668.805h9.535c-.992 0-1.453-.43-1.668-.805zm0 0"/>
</svg>
