<svg xmlns="http://www.w3.org/2000/svg" width="32" height="32">
    <path style="stroke:none;fill-rule:nonzero;fill:#000;fill-opacity:1" d="M18.973 16.004a2.983 2.983 0 0 1-2.98 2.984 2.983 2.983 0 0 1 0-5.965 2.982 2.982 0 0 1 2.98 2.98zm3.53-14.25c-1.792 0-4.14 1.277-6.515 3.492-2.375-2.203-4.722-3.469-6.52-3.469-.542 0-1.042.125-1.472.371C6.164 3.207 5.754 6.5 6.7 10.637 2.641 11.89 0 13.895 0 16.004c0 2.121 2.652 4.129 6.723 5.375-.938 4.152-.52 7.45 1.32 8.508.426.246.918.367 1.469.367 1.793 0 4.14-1.281 6.515-3.5 2.375 2.203 4.723 3.469 6.516 3.469.547 0 1.047-.118 1.477-.368 1.832-1.054 2.242-4.347 1.296-8.484C29.36 20.13 32 18.121 32 16.004s-2.652-4.129-6.723-5.375c.938-4.145.52-7.45-1.32-8.508a2.889 2.889 0 0 0-1.453-.367zm-.007 1.453v.008c.3 0 .543.058.746.168.887.508 1.274 2.445.973 4.937-.07.614-.192 1.262-.332 1.922a30.489 30.489 0 0 0-4.145-.71 31.59 31.59 0 0 0-2.715-3.266c2.125-1.973 4.118-3.055 5.477-3.059zM9.47 3.23c1.351 0 3.355 1.079 5.48 3.043a30.42 30.42 0 0 0-2.691 3.254 30.372 30.372 0 0 0-4.153.72 19.993 19.993 0 0 1-.335-1.895c-.31-2.489.07-4.426.949-4.942.254-.12.535-.172.75-.176zm6.511 4.067c.606.625 1.211 1.324 1.813 2.086a38.567 38.567 0 0 0-3.605 0 24.98 24.98 0 0 1 1.792-2.086zM16 10.8c.988 0 1.969.043 2.938.125.539.773 1.066 1.601 1.574 2.476.496.856.949 1.723 1.36 2.598-.411.871-.864 1.746-1.352 2.598a33.76 33.76 0 0 1-1.575 2.496 34.93 34.93 0 0 1-2.945.129c-.988 0-1.969-.047-2.938-.125a35.607 35.607 0 0 1-2.933-5.075c.406-.875.863-1.75 1.351-2.605a33.57 33.57 0 0 1 1.575-2.488A33.356 33.356 0 0 1 16 10.797zm-4.848.336c-.32.504-.64 1.02-.937 1.547a34.2 34.2 0 0 0-.848 1.566 28.925 28.925 0 0 1-.902-2.594 31.232 31.232 0 0 1 2.687-.515zm9.68 0c.93.14 1.82.308 2.676.52-.238.84-.54 1.706-.88 2.573a28.07 28.07 0 0 0-.855-1.562 31.365 31.365 0 0 0-.937-1.531zm4.086.902c.645.2 1.258.422 1.832.664 2.309.985 3.805 2.277 3.805 3.3-.008 1.024-1.5 2.321-3.813 3.302-.558.238-1.172.457-1.805.656a32.095 32.095 0 0 0-1.468-3.973 30.818 30.818 0 0 0 1.449-3.953zm-17.86.004c.372 1.281.86 2.61 1.465 3.973a31.87 31.87 0 0 0-1.449 3.953c-.644-.2-1.258-.422-1.824-.668-2.309-.98-3.805-2.274-3.805-3.297 0-1.024 1.496-2.324 3.805-3.3a19.465 19.465 0 0 1 1.809-.661zm15.57 5.707c.352.875.653 1.75.903 2.598-.855.21-1.758.386-2.691.52.32-.5.64-1.016.941-1.544.301-.52.582-1.05.848-1.574zm-13.26.027c.265.524.546 1.043.855 1.567.304.52.617 1.031.937 1.523a28.4 28.4 0 0 1-2.672-.515c.239-.84.54-1.707.88-2.575zm14.527 3.985c.148.656.265 1.289.335 1.894.31 2.492-.07 4.43-.949 4.946-.195.12-.453.171-.75.171-1.351 0-3.355-1.078-5.48-3.043a30.754 30.754 0 0 0 2.691-3.25 30.967 30.967 0 0 0 4.153-.722zm-15.774.011c1.277.313 2.672.555 4.14.711a31.97 31.97 0 0 0 2.716 3.258c-2.13 1.98-4.125 3.063-5.48 3.063-.294-.008-.544-.067-.74-.176-.886-.508-1.273-2.445-.972-4.938.07-.613.192-1.257.332-1.918zm6.078.852c.586.027 1.188.047 1.793.047.613 0 1.223-.012 1.817-.047-.59.766-1.196 1.46-1.797 2.09a27.565 27.565 0 0 1-1.813-2.09zm0 0"/>
</svg>
