<svg xmlns="http://www.w3.org/2000/svg" width="32" height="32">
    <path style="stroke:none;fill-rule:nonzero;fill:#000;fill-opacity:1" d="M16 0c8.836 0 16 7.164 16 16s-7.164 16-16 16S0 24.836 0 16 7.164 0 16 0zm-3.18 21.332c.235.86.207 1.664-.03 2.387l-.087.242a4.391 4.391 0 0 1-.848 1.313c-.93 1.011-2.226 1.398-2.785 1.074-.601-.348-.3-1.782.778-2.918 1.164-1.227 2.828-2.016 2.828-2.016v-.004zM26.035 6.848c-.723-2.844-5.437-3.778-9.898-2.192-2.649.942-5.524 2.422-7.59 4.356-2.457 2.297-2.848 4.297-2.684 5.133.567 2.945 4.606 4.875 6.27 6.304v.008c-.488.242-4.074 2.04-4.914 3.898-.903 1.961.136 3.364.82 3.543 2.098.582 4.258-.48 5.418-2.199 1.121-1.683 1.023-3.844.54-4.902.66-.18 1.44-.258 2.44-.137 2.801.32 3.36 2.078 3.239 2.797-.121.719-.696 1.14-.899 1.262-.199.12-.261.16-.242.238.02.121.121.121.281.102.22-.04 1.461-.602 1.52-1.961.062-1.72-1.578-3.641-4.5-3.602-1.2.024-1.961.121-2.5.344a.428.428 0 0 0-.137-.14c-1.8-1.942-5.14-3.302-5-5.88.04-.941.38-3.422 6.399-6.422 4.941-2.46 8.882-1.777 9.562-.277.977 2.137-2.101 6.117-7.242 6.7-1.961.218-2.98-.54-3.242-.821-.278-.3-.32-.32-.418-.262-.16.082-.059.34 0 .5.16.403.781 1.102 1.86 1.461.94.301 3.241.48 6-.597 3.1-1.2 5.519-4.543 4.82-7.34zm0 0"/>
</svg>
