<svg xmlns="http://www.w3.org/2000/svg" width="32" height="32">
    <path style="stroke:none;fill-rule:nonzero;fill:#000;fill-opacity:1" d="M16 6.398c-4.266 0-6.934 2.137-8 6.403 1.602-2.133 3.469-2.934 5.602-2.403 1.218.305 2.085 1.188 3.05 2.168C18.222 14.156 20.035 16 24 16c4.27 0 6.934-2.133 8-6.398-1.598 2.132-3.465 2.933-5.598 2.398-1.218-.305-2.086-1.188-3.05-2.164-1.57-1.594-3.383-3.438-7.352-3.438zM8 16c-4.266 0-6.934 2.133-8 6.398C1.602 20.266 3.469 19.465 5.602 20c1.218.305 2.085 1.188 3.05 2.164 1.57 1.594 3.383 3.438 7.348 3.438 4.27 0 6.934-2.137 8-6.403-1.598 2.133-3.465 2.934-5.598 2.403-1.218-.305-2.086-1.188-3.05-2.168C13.782 17.844 11.969 16 8 16zm0 0"/>
</svg>
