<svg xmlns="http://www.w3.org/2000/svg" width="32" height="32">
    <path style="stroke:none;fill-rule:nonzero;fill:#000;fill-opacity:1" d="M1.5 0C.668 0 0 .668 0 1.5v29c0 .832.668 1.5 1.5 1.5h29c.832 0 1.5-.668 1.5-1.5v-29c0-.832-.668-1.5-1.5-1.5zm23.152 13c.813 0 1.535.05 2.168.148a8.66 8.66 0 0 1 1.742.454v3.277a5.142 5.142 0 0 0-.859-.48 6.363 6.363 0 0 0-.957-.348 7.254 7.254 0 0 0-1.898-.266c-.403 0-.766.035-1.094.113a2.75 2.75 0 0 0-.828.325 1.615 1.615 0 0 0-.528.496 1.175 1.175 0 0 0-.183.656c0 .258.07.496.207.703.137.207.336.406.59.594.254.183.562.367.93.547.363.18.773.363 1.234.554.625.262 1.187.543 1.687.836.5.297.926.63 1.285 1.004.356.371.63.797.817 1.278.191.476.285 1.035.285 1.668 0 .878-.164 1.613-.496 2.21a4.063 4.063 0 0 1-1.352 1.446 5.858 5.858 0 0 1-1.98.793c-.754.16-1.55.242-2.387.242-.824.004-1.644-.07-2.453-.219a7.476 7.476 0 0 1-2.016-.656v-3.508a6.717 6.717 0 0 0 4.317 1.598c.441 0 .832-.04 1.16-.117a2.72 2.72 0 0 0 .832-.336 1.42 1.42 0 0 0 .496-.504c.25-.465.211-1.028-.098-1.453a2.905 2.905 0 0 0-.714-.668 7.594 7.594 0 0 0-1.079-.59c-.44-.203-.89-.399-1.343-.582-1.223-.512-2.133-1.137-2.735-1.875-.601-.735-.902-1.63-.902-2.672 0-.82.164-1.52.492-2.11.328-.59.774-1.07 1.34-1.453a5.993 5.993 0 0 1 1.957-.835 10.017 10.017 0 0 1 2.363-.27zM4.5 13.25h12.75v2.887h-4.574V29H9.05V16.137H4.5zm0 0"/>
</svg>
