<svg xmlns="http://www.w3.org/2000/svg" width="32" height="32">
    <path style="stroke:none;fill-rule:nonzero;fill:#000;fill-opacity:1" d="M29.598 24.664 16.57 32v-5.715l8.117-4.445zm.89-.805V8.52l-4.765 2.739v9.86zm-28.086.805L15.43 32v-5.715L7.313 21.84zm-.89-.805V8.52l4.765 2.739v9.86zM2.07 7.523 15.43 0v5.523L6.87 10.211l-.066.039zm27.864 0L16.57 0v5.523l8.559 4.688.066.039 4.735-2.727zM15.43 24.988l-8.008-4.386v-8.684l8.008 4.602zm1.14 0 8.008-4.386v-8.684L16.57 16.52zM7.965 10.914 16 6.512l8.04 4.402L16 15.535zm0 0"/>
</svg>
