<svg xmlns="http://www.w3.org/2000/svg" width="32" height="32">
    <path style="stroke:none;fill-rule:nonzero;fill:#000;fill-opacity:1" d="M16 0C7.168 0 0 7.168 0 16s7.168 16 16 16 16-7.168 16-16S24.832 0 16 0zm1.023 5.473c.247 0 .485.07.7.21.168.11.382.247 1.007 1.54.415-.118.625-.059.735-.028a.979.979 0 0 1 .617.5c.637 1.223.723 3.407.445 4.809-.32 1.64-1.007 2.703-1.507 3.434.433.437 1.039 1.199 1.488 2.433a6.6 6.6 0 0 1 .367 2.688c.273-.13.543-.278.8-.442.79-.488 1.985-1.222 3.403-1.238.953-.012 1.695.59 1.805 1.469a1.639 1.639 0 0 1-1.258 1.816c-.867.211-1.27.371-2.43 1.125-1.64 1.063-3.383 1.656-4.015 1.852a2.193 2.193 0 0 1-.938.457c-.984.242-4.355.422-4.62.422h-.063c-1.043 0-1.618-.32-1.934-.657-.879.438-2.012.254-2.828-.18a1.43 1.43 0 0 1-.774-1.535 1.622 1.622 0 0 1-.203-.261c-.218-.332-.707-1.246-.605-2.594.074-.965.738-1.824 1.172-2.281a7.35 7.35 0 0 1 .543-3.008c.41-.969 1.18-1.797 1.761-2.317-.425-.714-.859-1.82-.437-2.945.3-.8.547-1.246 1.09-1.441h-.004c.265-.098.515-.203.648-.344a4.54 4.54 0 0 1 3.063-1.469c.05-.125.105-.25.168-.379.41-.879.851-1.37 1.363-1.558.14-.051.29-.078.438-.078zm.008.933c-.676.024-1.332 2.028-1.332 2.028s-1.695-.274-3.023 1.16c-.266.289-.625.445-.996.586-.106.039-.235.03-.555.894-.496 1.324.832 2.793.832 2.793s-1.578 1.121-2.168 2.508c-.644 1.527-.45 3.016-.45 3.016s-1.124.976-1.198 1.984c-.067.883.187 1.598.457 2.02.304.457.68.234.68.234s-.747.871-.048 1.242c.637.332 1.711.524 2.278-.05.414-.415.496-1.337.648-1.712.04-.086.16.149.281.266.13.125.352.258.352.258s-1.008.433-.594 1.422c.137.328.625.539 1.422.53.293-.007 3.551-.183 4.418-.394.5-.117.672-.375.672-.375s2.086-.578 3.996-1.812c1.223-.797 1.727-1.012 2.711-1.246.816-.2.762-1.465-.32-1.445-1.117.011-2.098.585-2.926 1.097-1.55.961-2.324.899-2.324.899l-.024-.043c-.105-.172.496-1.723-.18-3.57-.73-2.02-1.882-2.509-1.792-2.665.398-.664 1.386-1.73 1.78-3.707.235-1.199.173-3.168-.358-4.199-.098-.191-.977.32-.977.32s-.82-1.828-1.05-1.976a.358.358 0 0 0-.208-.063zm0 0"/>
</svg>
