<svg xmlns="http://www.w3.org/2000/svg" viewBox="0 0 32 32" width="16" height="16">
    <path style="stroke:none;fill-rule:nonzero;fill:#000;fill-opacity:1" d="M16 .395c-8.84 0-16 7.164-16 16 0 7.07 4.586 13.066 10.941 15.18.797.152 1.094-.345 1.094-.766 0-.383-.015-1.387-.023-2.723-4.45.965-5.387-2.145-5.387-2.145-.73-1.847-1.781-2.34-1.781-2.34-1.45-.992.113-.972.113-.972 1.606.11 2.45 1.648 2.45 1.648 1.425 2.446 3.745 1.739 4.66 1.328.144-1.035.554-1.738 1.011-2.14-3.55-.399-7.285-1.774-7.285-7.906 0-1.746.617-3.172 1.644-4.293-.18-.403-.718-2.032.141-4.235 0 0 1.34-.43 4.402 1.64a15.319 15.319 0 0 1 4-.538c1.36.008 2.72.183 4 .539 3.04-2.07 4.38-1.64 4.38-1.64.859 2.202.32 3.831.16 4.234 1.02 1.12 1.64 2.546 1.64 4.293 0 6.148-3.742 7.5-7.3 7.894.558.48 1.078 1.461 1.078 2.961 0 2.14-.02 3.86-.02 4.379 0 .422.281.922 1.102.762C27.422 29.457 32 23.457 32 16.395c0-8.836-7.164-16-16-16"/>
</svg>
