<svg xmlns="http://www.w3.org/2000/svg" viewBox="0 0 32 32" width="16" height="16">
    <path style="stroke:none;fill-rule:nonzero;fill:#000;fill-opacity:1" d="M16 0c-4.348 0-4.89.02-6.598.098C7.7.176 6.54.445 5.52.84a7.868 7.868 0 0 0-2.836 1.844A7.835 7.835 0 0 0 .84 5.52C.445 6.54.176 7.7.098 9.402.016 11.11 0 11.652 0 16s.02 4.89.098 6.598c.078 1.699.347 2.863.742 3.882a7.868 7.868 0 0 0 1.844 2.836A7.835 7.835 0 0 0 5.52 31.16c1.023.395 2.183.664 3.882.742 1.707.082 2.25.098 6.598.098s4.89-.02 6.598-.098c1.699-.078 2.863-.347 3.882-.742a7.868 7.868 0 0 0 2.836-1.844 7.835 7.835 0 0 0 1.844-2.836c.395-1.02.664-2.183.742-3.882.082-1.707.098-2.25.098-6.598s-.02-4.89-.098-6.598c-.078-1.699-.347-2.863-.742-3.882a7.868 7.868 0 0 0-1.844-2.836A7.835 7.835 0 0 0 26.48.84C25.46.445 24.297.176 22.598.098 20.89.016 20.348 0 16 0zm0 2.879c4.27 0 4.781.023 6.465.098 1.562.07 2.41.332 2.973.55.746.29 1.277.637 1.84 1.196a4.951 4.951 0 0 1 1.195 1.84c.218.562.48 1.41.55 2.972.079 1.688.094 2.192.094 6.465s-.02 4.781-.097 6.465c-.082 1.562-.344 2.41-.563 2.973-.297.746-.637 1.277-1.2 1.84a4.983 4.983 0 0 1-1.839 1.195c-.559.218-1.418.48-2.98.55-1.7.079-2.2.094-6.477.094-4.281 0-4.781-.02-6.48-.097-1.56-.082-2.422-.344-2.981-.563-.758-.297-1.281-.637-1.84-1.2a4.896 4.896 0 0 1-1.2-1.839c-.218-.559-.476-1.418-.558-2.98-.062-1.68-.082-2.2-.082-6.458 0-4.261.02-4.78.082-6.48.082-1.563.34-2.422.559-2.98.281-.758.64-1.282 1.2-1.84.558-.559 1.081-.918 1.839-1.2.559-.218 1.402-.48 2.96-.558 1.7-.063 2.2-.082 6.481-.082zm0 4.906a8.215 8.215 0 1 0 0 16.43 8.215 8.215 0 1 0 0-16.43zm0 13.547A5.331 5.331 0 0 1 10.668 16 5.331 5.331 0 0 1 16 10.668 5.331 5.331 0 0 1 21.332 16 5.331 5.331 0 0 1 16 21.332zM26.46 7.461a1.92 1.92 0 0 1-3.84 0c.001-1.059.864-1.918 1.923-1.918a1.919 1.919 0 0 1 1.918 1.918zm0 0"/>
</svg>
