<svg xmlns="http://www.w3.org/2000/svg" viewBox="0 0 32 32" width="16" height="16">
    <path style="stroke:none;fill-rule:nonzero;fill:#000;fill-opacity:1" d="M27.262 27.27h-4.739v-7.426c0-1.77-.035-4.051-2.468-4.051-2.47 0-2.848 1.93-2.848 3.922v7.555h-4.738V12h4.55v2.082h.063c.637-1.2 2.184-2.469 4.492-2.469 4.801 0 5.692 3.16 5.692 7.274v8.383zM7.117 9.91a2.747 2.747 0 0 1-2.75-2.754 2.749 2.749 0 1 1 5.5 0 2.755 2.755 0 0 1-2.75 2.754zm2.375 17.36H4.738V12h4.754zM29.632 0H2.364C1.055 0 0 1.031 0 2.305v27.39C0 30.97 1.055 32 2.363 32H29.63C30.934 32 32 30.969 32 29.695V2.305C32 1.03 30.934 0 29.629 0zm0 0"/>
</svg>
