<svg xmlns="http://www.w3.org/2000/svg" viewBox="0 0 32 32" width="16" height="16">
    <path style="stroke:none;fill-rule:nonzero;fill:#000;fill-opacity:1" d="M20.813 16A4.82 4.82 0 0 1 16 20.813 4.82 4.82 0 0 1 11.187 16 4.82 4.82 0 0 1 16 11.187 4.82 4.82 0 0 1 20.813 16M16 0C7.176 0 0 7.176 0 16s7.176 16 16 16c3.23 0 6.348-.96 9.012-2.781l.047-.035-2.157-2.504-.035.023A12.635 12.635 0 0 1 16 28.72C8.988 28.719 3.281 23.012 3.281 16S8.988 3.281 16 3.281 28.719 8.988 28.719 16c0 .918-.102 1.836-.297 2.734-.402 1.653-1.559 2.157-2.43 2.09-.87-.07-1.89-.695-1.898-2.215V16c-.008-4.469-3.625-8.09-8.094-8.094A8.1 8.1 0 0 0 7.906 16 8.1 8.1 0 0 0 16 24.094a8.03 8.03 0 0 0 5.734-2.39 5.19 5.19 0 0 0 4.426 2.405c1.164 0 2.32-.386 3.25-1.093.957-.73 1.676-1.782 2.07-3.047.063-.203.18-.672.18-.676l.004-.016C31.894 18.262 32 17.25 32 16c0-8.824-7.176-16-16-16"/>
</svg>
