<svg xmlns="http://www.w3.org/2000/svg" viewBox="0 0 32 32" width="16" height="16">
    <path style="stroke:none;fill-rule:nonzero;fill:#000;fill-opacity:1" d="M15.926 0C7.117.043 0 7.191 0 16c0 8.836 7.164 16 16 16s16-7.164 16-16S24.836 0 16 0h-.074zm6.617 9.633c.133-.004.426.031.617.187.13.11.211.266.23.434.02.121.047.406.024.629-.238 2.527-1.281 8.668-1.812 11.5-.223 1.203-.665 1.601-1.094 1.64-.926.086-1.633-.613-2.531-1.203-1.41-.922-2.204-1.496-3.57-2.398-1.583-1.04-.56-1.613.343-2.547.234-.246 4.328-3.969 4.41-4.309.008-.043.016-.199-.074-.28-.094-.083-.234-.056-.332-.032-.145.031-2.39 1.52-6.75 4.46-.64.438-1.219.653-1.734.638-.57-.008-1.672-.32-2.489-.586-1.004-.325-1.797-.496-1.73-1.051.039-.29.433-.582 1.191-.883 4.664-2.035 7.774-3.375 9.332-4.02 4.442-1.847 5.367-2.167 5.969-2.18zm0 0"/>
</svg>
