<svg xmlns="http://www.w3.org/2000/svg" viewBox="0 0 32 32" width="16" height="16">
    <path style="stroke:none;fill-rule:nonzero;fill:#000;fill-opacity:1" d="M31.938 6.094c-1.2.527-2.47.875-3.766 1.031a6.602 6.602 0 0 0 2.883-3.629 13.62 13.62 0 0 1-4.168 1.578A6.57 6.57 0 0 0 19 3.77a6.566 6.566 0 0 0-3.293 7.28c-5.453-.257-10.285-2.878-13.52-6.835a6.45 6.45 0 0 0-.89 3.3 6.556 6.556 0 0 0 2.918 5.462 6.498 6.498 0 0 1-2.969-.82v.077a6.563 6.563 0 0 0 5.262 6.438 6.659 6.659 0 0 1-2.95.113 6.576 6.576 0 0 0 6.137 4.555 13.13 13.13 0 0 1-8.136 2.808A13.9 13.9 0 0 1 0 26.058a18.646 18.646 0 0 0 10.074 2.946c12.074 0 18.664-9.996 18.664-18.649 0-.277 0-.558-.02-.84A13.226 13.226 0 0 0 32 6.122zm0 0"/>
</svg>
