<svg xmlns="http://www.w3.org/2000/svg" width="32" height="32">
    <path style="stroke:none;fill-rule:nonzero;fill:#000;fill-opacity:1" d="M31 8v1c0 .277-.223.5-.5.5H29v.75a.75.75 0 0 1-.75.75H3.75a.75.75 0 0 1-.75-.75V9.5H1.5A.498.498 0 0 1 1 9V8c0-.203.121-.383.309-.46l14.5-5.5a.5.5 0 0 1 .382 0l14.5 5.5A.497.497 0 0 1 31 8zm-1.5 19h-27A1.5 1.5 0 0 0 1 28.5v1c0 .277.223.5.5.5h29c.277 0 .5-.223.5-.5v-1a1.5 1.5 0 0 0-1.5-1.5zM6 12v12H3.75a.75.75 0 0 0-.75.75V26h26v-1.25a.75.75 0 0 0-.75-.75H26V12h-4v12h-4V12h-4v12h-4V12zm0 0"/>
</svg>
